<!DOCTYPE svg PUBLIC "-//W3C//DTD SVG 1.1//EN" "http://www.w3.org/Graphics/SVG/1.1/DTD/svg11.dtd">
<!-- Uploaded to: SVG Repo, www.svgrepo.com, Transformed by: SVG Repo Mixer Tools -->
<svg width="64px" height="64px" viewBox="-2.4 -2.4 28.80 28.80" xmlns="http://www.w3.org/2000/svg" fill="#ffffff" stroke="#ffffff" stroke-width="0.00024000000000000003" transform="matrix(-1, 0, 0, 1, 0, 0)">
<g id="SVGRepo_bgCarrier" stroke-width="0">
<path transform="translate(-2.4, -2.4), scale(0.8999999999999999)" d="M16,29.558317141141742C18.139980673716504,29.59976514707507,19.89547108891083,28.01847630231371,21.85044664292646,27.14709475311882C23.93411706169762,26.218350680697615,26.879051683906233,26.26038494381631,27.935398911320156,24.238411031706057C29.027325309806702,22.148334365258613,27.35157942093797,19.661223414397632,26.977694819652427,17.332933476210936C26.697829948763502,15.590132192868003,26.41039498178225,13.923800683075132,26.00323775384922,12.206272327873583C25.541456173608253,10.258319783840413,25.6698949700379,8.062512404813576,24.411038562981986,6.50590009339194C23.115894544855884,4.904417102655865,20.952719097092782,4.408800411089068,19.053262485026252,3.6124271467327596C16.879933210540315,2.701229008355451,14.730224073951128,1.0093066845861405,12.420858599691343,1.4788525172976215C10.116934471018135,1.9472920023248572,8.905928931053978,4.447308764007065,7.166674943522157,6.029237178528355C5.450026661821251,7.590604703932476,2.512713043622375,8.468687245212637,2.206847531302424,10.76894726547698C1.878992295833905,13.234580886156987,5.1724637329201295,14.817568793223248,5.674147052801549,17.25378554331025C6.116338171071215,19.401103116720694,3.9258627071149386,21.704552442111726,4.866582027950042,23.68484355847857C5.780509193807912,25.608734997157665,8.3834437583515,25.92891288203534,10.267299769468995,26.92274770819722C12.154912517243169,27.918564413918947,13.866218193437586,29.516989197359322,16,29.558317141141742" fill="#7ed0ec" strokewidth="0"/>
</g>
<g id="SVGRepo_tracerCarrier" stroke-linecap="round" stroke-linejoin="round"/>
<g id="SVGRepo_iconCarrier"> <g> <path fill="none" d="M0 0H24V24H0z"/> <path d="M11 2c4.068 0 7.426 3.036 7.934 6.965l2.25 3.539c.148.233.118.58-.225.728L19 14.07V17c0 1.105-.895 2-2 2h-1.999L15 22H6v-3.694c0-1.18-.436-2.297-1.244-3.305C3.657 13.631 3 11.892 3 10c0-4.418 3.582-8 8-8zm0 2c-3.314 0-6 2.686-6 6 0 1.385.468 2.693 1.316 3.75C7.41 15.114 8 16.667 8 18.306V20h5l.002-3H17v-4.248l1.55-.664-1.543-2.425-.057-.442C16.566 6.251 14.024 4 11 4zm0 3c.552 0 1 .448 1 1v1h1c.552 0 1 .448 1 1s-.448 1-1 1h-1v1c0 .552-.448 1-1 1s-1-.448-1-1v-1.001L9 11c-.552 0-1-.448-1-1s.448-1 1-1l1-.001V8c0-.552.448-1 1-1z"/> </g> </g>
</svg>